<svg viewBox="0 0 1024 1024" xmlns="http://www.w3.org/2000/svg">
  <path d="M706 256H346c-86 0-156 70-156 156v220c0 126 102 228 228 228h182c126 0 228-102 228-228V344c0-99-80-180-180-180H390c-151 0-274 123-274 274v178c0 174 141 316 316 316h256c26 0 48-22 48-48s-22-48-48-48H432c-121 0-220-99-220-220V438c0-98 80-178 178-178h258c46 0 84 38 84 84v288c0 73-59 132-132 132H418c-73 0-132-59-132-132V412c0-33 27-60 60-60h360c26 0 48-22 48-48s-22-48-48-48z"/>
  <path d="M392 452c0-26 22-48 48-48h214c26 0 48 22 48 48s-22 48-48 48H440c-26 0-48-22-48-48zm0 150c0-26 22-48 48-48h166c26 0 48 22 48 48s-22 48-48 48H440c-26 0-48-22-48-48z"/>
</svg>
